<svg width="32" height="32" viewBox="0 0 32 32" fill="none" xmlns="http://www.w3.org/2000/svg">
<circle cx="16" cy="16" r="16" fill="#0D28A6"/>
<path d="M20.1667 7.66675H11.8333C9.53214 7.66675 7.66666 9.53223 7.66666 11.8334V20.1667C7.66666 22.4679 9.53214 24.3334 11.8333 24.3334H20.1667C22.4678 24.3334 24.3333 22.4679 24.3333 20.1667V11.8334C24.3333 9.53223 22.4678 7.66675 20.1667 7.66675Z" stroke="white" stroke-linecap="round" stroke-linejoin="round"/>
<path d="M19.3333 15.475C19.4362 16.1685 19.3177 16.8769 18.9948 17.4992C18.6719 18.1215 18.161 18.6262 17.5347 18.9414C16.9084 19.2566 16.1987 19.3663 15.5065 19.255C14.8143 19.1436 14.1748 18.8167 13.679 18.321C13.1833 17.8252 12.8565 17.1857 12.7451 16.4935C12.6337 15.8013 12.7434 15.0916 13.0586 14.4653C13.3738 13.8391 13.8785 13.3281 14.5008 13.0052C15.1232 12.6823 15.8315 12.5638 16.525 12.6667C17.2324 12.7716 17.8874 13.1012 18.3931 13.6069C18.8988 14.1126 19.2284 14.7676 19.3333 15.475Z" stroke="white" stroke-linecap="round" stroke-linejoin="round"/>
<path d="M20.5833 11.4167H20.5917" stroke="white" stroke-linecap="round" stroke-linejoin="round"/>
</svg>
