<svg width="32" height="32" viewBox="0 0 32 32" fill="none" xmlns="http://www.w3.org/2000/svg">
<circle cx="16" cy="16" r="16" fill="#F9CC00"/>
<path d="M11.8333 24.3333H9.33334C8.89131 24.3333 8.46739 24.1577 8.15483 23.8451C7.84227 23.5326 7.66667 23.1087 7.66667 22.6666V16.8333C7.66667 16.3913 7.84227 15.9673 8.15483 15.6548C8.46739 15.3422 8.89131 15.1666 9.33334 15.1666H11.8333M17.6667 13.5V10.1666C17.6667 9.50358 17.4033 8.8677 16.9344 8.39886C16.4656 7.93002 15.8297 7.66663 15.1667 7.66663L11.8333 15.1666V24.3333H21.2333C21.6353 24.3378 22.0253 24.197 22.3316 23.9366C22.6379 23.6763 22.8397 23.314 22.9 22.9166L24.05 15.4166C24.0863 15.1778 24.0702 14.9339 24.0028 14.7018C23.9354 14.4698 23.8184 14.2552 23.6599 14.0729C23.5014 13.8906 23.3051 13.7449 23.0846 13.646C22.8642 13.547 22.6249 13.4972 22.3833 13.5H17.6667Z" stroke="white" stroke-width="2" stroke-linecap="round" stroke-linejoin="round"/>
</svg>
